ffmpeg version 2021-02-07-git-a52b9464e4-full_build-www.gyan.dev Copyright (c) 2000-2021 the FFmpeg developers
  built with gcc 10.2.0 (Rev6, Built by MSYS2 project)
  configuration: --enable-gpl --enable-version3 --enable-static --disable-w32threads --disable-autodetect --enable-fontconfig --enable-iconv --enable-gnutls --enable-libxml2 --enable-gmp --enable-lzma --enable-libsnappy --enable-zlib --enable-libsrt --enable-libssh --enable-libzmq --enable-avisynth --enable-libbluray --enable-libcaca --enable-sdl2 --enable-libdav1d --enable-libzvbi --enable-librav1e --enable-libsvtav1 --enable-libwebp --enable-libx264 --enable-libx265 --enable-libxvid --enable-libaom --enable-libopenjpeg --enable-libvpx --enable-libass --enable-frei0r --enable-libfreetype --enable-libfribidi --enable-libvidstab --enable-libvmaf --enable-libzimg --enable-amf --enable-cuda-llvm --enable-cuvid --enable-ffnvcodec --enable-nvdec --enable-nvenc --enable-d3d11va --enable-dxva2 --enable-libmfx --enable-libglslang --enable-vulkan --enable-opencl --enable-libcdio --enable-libgme --enable-libmodplug --enable-libopenmpt --enable-libopencore-amrwb --enable-libmp3lame --enable-libshine --enable-libtheora --enable-libtwolame --enable-libvo-amrwbenc --enable-libilbc --enable-libgsm --enable-libopencore-amrnb --enable-libopus --enable-libspeex --enable-libvorbis --enable-ladspa --enable-libbs2b --enable-libflite --enable-libmysofa --enable-librubberband --enable-libsoxr --enable-chromaprint
  libavutil      56. 64.100 / 56. 64.100
  libavcodec     58.121.100 / 58.121.100
  libavformat    58. 67.100 / 58. 67.100
  libavdevice    58. 11.103 / 58. 11.103
  libavfilter     7.102.100 /  7.102.100
  libswscale      5.  8.100 /  5.  8.100
  libswresample   3.  8.100 /  3.  8.100
  libpostproc    55.  8.100 / 55.  8.100
Input #0, image2pipe, from 'pipe:':
  Duration: N/A, bitrate: N/A
  Stream #0:0: Video: ppm, rgb24, 432x240, 24 fps, 24 tbr, 24 tbn, 24 tbc
Stream mapping:
  Stream #0:0 -> #0:0 (ppm (native) -> h264 (libx264))
[libx264 @ 00000204b5343dc0] using cpu capabilities: MMX2 SSE2Fast SSSE3 SSE4.2 AVX FMA3 BMI2 AVX2
[libx264 @ 00000204b5343dc0] profile High, level 2.1, 4:2:0, 8-bit
[libx264 @ 00000204b5343dc0] 264 - core 161 r3043 59c0609 - H.264/MPEG-4 AVC codec - Copyleft 2003-2021 - http://www.videolan.org/x264.html - options: cabac=1 ref=3 deblock=1:0:0 analyse=0x3:0x113 me=hex subme=7 psy=1 psy_rd=1.00:0.00 mixed_ref=1 me_range=16 chroma_me=1 trellis=1 8x8dct=1 cqm=0 deadzone=21,11 fast_pskip=1 chroma_qp_offset=-2 threads=7 lookahead_threads=1 sliced_threads=0 nr=0 decimate=1 interlaced=0 bluray_compat=0 constrained_intra=0 bframes=3 b_pyramid=2 b_adapt=1 b_bias=0 direct=1 weightb=1 open_gop=0 weightp=2 keyint=250 keyint_min=24 scenecut=40 intra_refresh=0 rc_lookahead=40 rc=abr mbtree=1 bitrate=2000 ratetol=1.0 qcomp=0.60 qpmin=0 qpmax=69 qpstep=4 ip_ratio=1.40 aq=1:1.00
Output #0, mp4, to '.\mission_records\d8cfa450-dd9f-4412-a7ba-cba932b65300\colourmap_video.mp4':
  Metadata:
    encoder         : Lavf58.67.100
  Stream #0:0: Video: h264 (avc1 / 0x31637661), yuv420p(tv, progressive), 432x240, q=2-31, 2000 kb/s, 24 fps, 12288 tbn
    Metadata:
      encoder         : Lavc58.121.100 libx264
    Side data:
      cpb: bitrate max/min/avg: 0/0/2000000 buffer size: 0 vbv_delay: N/A
frame=    1 fps=0.0 q=0.0 size=       0kB time=00:00:00.00 bitrate=N/A speed=   0x    frame=   43 fps=0.0 q=-1.0 Lsize=      77kB time=00:00:01.66 bitrate= 380.2kbits/s speed=3.78x    
video:76kB audio:0kB subtitle:0kB other streams:0kB global headers:0kB muxing overhead: 1.691956%
[libx264 @ 00000204b5343dc0] frame I:1     Avg QP: 8.11  size:  5684
[libx264 @ 00000204b5343dc0] frame P:21    Avg QP: 2.86  size:  2798
[libx264 @ 00000204b5343dc0] frame B:21    Avg QP: 4.87  size:   607
[libx264 @ 00000204b5343dc0] consecutive B-frames: 20.9% 37.2% 14.0% 27.9%
[libx264 @ 00000204b5343dc0] mb I  I16..4: 66.2%  8.4% 25.4%
[libx264 @ 00000204b5343dc0] mb P  I16..4:  2.6%  0.0%  1.0%  P16..4: 17.9%  0.6%  0.6%  0.0%  0.0%    skip:77.2%
[libx264 @ 00000204b5343dc0] mb B  I16..4:  0.0%  0.0%  0.0%  B16..8:  5.4%  0.6%  0.3%  direct: 6.7%  skip:87.0%  L0:17.0% L1:75.4% BI: 7.6%
[libx264 @ 00000204b5343dc0] final ratefactor: -8.04
[libx264 @ 00000204b5343dc0] 8x8 transform intra:4.7% inter:18.7%
[libx264 @ 00000204b5343dc0] coded y,uvDC,uvAC intra: 15.2% 34.5% 32.4% inter: 7.5% 12.1% 11.0%
[libx264 @ 00000204b5343dc0] i16 v,h,dc,p: 80% 19%  1%  0%
[libx264 @ 00000204b5343dc0] i8 v,h,dc,ddl,ddr,vr,hd,vl,hu: 71%  2% 25%  0%  0%  0%  0%  0%  1%
[libx264 @ 00000204b5343dc0] i4 v,h,dc,ddl,ddr,vr,hd,vl,hu: 33% 36% 18%  1%  2%  1%  6%  1%  3%
[libx264 @ 00000204b5343dc0] i8c dc,h,v,p: 60% 33%  5%  2%
[libx264 @ 00000204b5343dc0] Weighted P-Frames: Y:0.0% UV:0.0%
[libx264 @ 00000204b5343dc0] ref P L0: 98.4%  0.0%  0.7%  0.9%
[libx264 @ 00000204b5343dc0] ref B L0: 98.9%  0.6%  0.5%
[libx264 @ 00000204b5343dc0] ref B L1: 97.5%  2.5%
[libx264 @ 00000204b5343dc0] kb/s:344.68
